# xmcd
#
# Track frame offsets: 
#        150
#        19266
#        37968
#        55415
#        74086
#        97215
#        113412
#        136761
#        158740
#        173069
#        186586
#        201915
#        215867
#        232463
#        258158
#
# Disc length: 3851 seconds
#
# Revision: 1
# Processed by: cddbd v1.5.2PL0 Copyright (c) Steve Scherf et al.
# Submitted via: ExactAudioCopyFreeDBPlugin 1.0
#
DISCID=e60f090f
DTITLE=Eloise Laws - Ain't It Good Feeling Good (2012 Remastered)
DYEAR=1977
DGENRE=Soul
TTITLE0=You Got Me Loving You Again
TTITLE1=Love Goes Deeper Than That
TTITLE2=Ain't It Good Feeling Good
TTITLE3=Make It Last Forever
TTITLE4=Where Did We Go Wrong
TTITLE5=I Believe In You Baby
TTITLE6=Put A Little Love Into It (When You Do It)
TTITLE7=Camouflage
TTITLE8=You Made Me An Offer I Can't Refuse [Mono] (bonus track)
TTITLE9=Tighten Him Up [Mono] (bonus track)
TTITLE10=Love Factory (bonus track)
TTITLE11=Stay With Me [Mono] (bonus track)
TTITLE12=Touch Me [Mono] (bonus track)
TTITLE13=Love Goes Deeper Than That [12inch Version] (bonus track)
TTITLE14=Put A Little Love Into It (When You Do It) [12inch Version] (
TTITLE14=bonus track)
EXTD=
EXTT0=
EXTT1=
EXTT2=
EXTT3=
EXTT4=
EXTT5=
EXTT6=
EXTT7=
EXTT8=
EXTT9=
EXTT10=
EXTT11=
EXTT12=
EXTT13=
EXTT14=
PLAYORDER=
